PathFileType	4	(X/Y/Z)	Run_500 01
DataRate	CameraRate	NumFrames	NumMarkers	Units	OrigDataRate	OrigDataStartFrame	OrigNumFrames
120	120	5	42	mm	120	90	128
Frame#	Time	LASI			RASI			LPSI			RPSI			RTH1			RTH2			RTH3			LTH1			LTH2			LTH3			RTB1			RTB2			LTB1			LTB2			LTB3			RCAL			RTOE			RMT5			LCAL			LTOE			LMT5			LACR			RACR			CLAV			C7			RUA1			RUA2			RUA3			RLEL			LUA1			LUA2			LUA3			LLEL			LMEL			RFAsuperior			RFAradius			RFAulna			LFAsuperior			LFAradius			LFAulna			RMEL			RTB3			
		X1	Y1	Z1	X2	Y2	Z2	X3	Y3	Z3	X4	Y4	Z4	X5	Y5	Z5	X6	Y6	Z6	X7	Y7	Z7	X8	Y8	Z8	X9	Y9	Z9	X10	Y10	Z10	X11	Y11	Z11	X12	Y12	Z12	X13	Y13	Z13	X14	Y14	Z14	X15	Y15	Z15	X16	Y16	Z16	X17	Y17	Z17	X18	Y18	Z18	X19	Y19	Z19	X20	Y20	Z20	X21	Y21	Z21	X22	Y22	Z22	X23	Y23	Z23	X24	Y24	Z24	X25	Y25	Z25	X26	Y26	Z26	X27	Y27	Z27	X28	Y28	Z28	X29	Y29	Z29	X30	Y30	Z30	X31	Y31	Z31	X32	Y32	Z32	X33	Y33	Z33	X34	Y34	Z34	X35	Y35	Z35	X36	Y36	Z36	X37	Y37	Z37	X38	Y38	Z38	X39	Y39	Z39	X40	Y40	Z40	X41	Y41	Z41	X42	Y42	Z42	

88	0.916667	1161.705992	967.579491	-434.990953	1135.840021	980.753297	-199.177963	989.631352	1009.699916	-393.343875	977.64032	1010.901858	-295.100352	1097.516389	819.187485	-156.21284	1210.418983	697.4807029999999	-182.389088	1181.187772	594.996767	-212.737237	1102.831687	791.13897	-499.330224	1184.526685	696.07637	-487.364904	1126.775515	574.755731	-475.863197	1245.962762	377.404831	-294.956118	1183.576253	328.754987	-237.588326	1031.744271	473.098319	-420.716765	964.714984	560.9023999999999	-467.778352	865.372238	581.356707	-403.088696	1018.992258	91.21520599999999	-338.77681	1234.396404	71.74307	-347.325878	1210.150537	46.94558	-241.379967	827.471307	738.410488	-397.229509	684.876454	592.28953	-352.026907	663.758414	614.753795	-456.173865	1155.903463	1462.700085	-477.018667	1121.446412	1422.128289	-111.873308	1206.893996	1394.300541	-266.373298	1098.680053	1487.248694	-302.507243	1074.745388	1343.507183	-71.29426599999999	1058.902898	1257.929083	-92.790532	972.373481	1276.826668	-87.87814	913.70153	1182.686792	-78.1677	1115.394611	1401.803644	-537.429077	1040.014023	1369.763094	-521.874523	1080.85298	1304.250895	-566.9669709999999	986.9351789999999	1238.528961	-612.231666	948.266044	1241.161561	-549.6288060000001	981.98941	1115.500089	-61.441712	1074.378916	960.952529	-79.803479	1013.002857	932.06076	-96.126256	1049.11978	1179.845143	-600.942372	1156.200088	1042.831418	-504.391846	1112.5922	1006.971159	-543.3111270000001	909.010871	1185.400234	-145.356781	1179.439927	208.622707	-308.623134	
89	0.925	1158.177685	962.012922	-434.559741	1132.701422	973.565679	-198.820445	985.996404	1006.06002	-390.706669	973.975853	1006.842974	-292.995177	1087.856779	813.8296350000001	-157.096805	1198.582794	689.901963	-184.269579	1166.61295	588.495393	-216.30114	1108.093087	787.482042	-499.02482	1198.158618	697.638751	-487.928453	1150.483265	571.908036	-479.611775	1222.737349	369.592467	-299.491272	1157.39884	323.532943	-242.055522	1060.076545	472.849103	-421.904494	992.231328	557.440697	-470.245969	892.7692950000001	577.44912	-404.900195	980.880918	92.459982	-342.212763	1195.932604	69.86336	-349.291331	1170.640856	47.209367	-243.509092	848.189033	735.295528	-398.614873	711.399776	583.498242	-354.885242	691.012932	604.361322	-459.572548	1150.668867	1457.295903	-477.732289	1125.403314	1416.44678	-110.546852	1207.687483	1389.134707	-268.271363	1097.82298	1482.253307	-301.382507	1084.19196	1332.8614	-69.952403	1069.457191	1247.551417	-92.25940300000001	983.011129	1263.929714	-79.85994700000001	927.744691	1166.438543	-70.67771399999999	1108.331424	1396.611662	-537.232163	1033.091611	1364.097716	-519.548334	1072.063919	1299.44989	-565.753365	975.060139	1235.673936	-609.692077	938.729406	1237.826869	-546.3449429999999	1000.751085	1103.743204	-59.501322	1098.602824	955.535563	-83.78975199999999	1037.842166	923.059759	-97.620065	1034.93778	1174.025405	-602.367582	1136.654813	1026.047037	-514.860943	1088.281984	995.959681	-554.105232	917.934066	1170.337575	-137.391306	1147.075555	204.475651	-312.860374	
90	0.933333	1154.762802	957.52994	-434.124142	1129.427328	968.509735	-198.836674	982.6422700000001	1003.958728	-388.861189	970.605545	1004.974814	-291.140806	1077.942871	810.543373	-158.284153	1185.618555	683.364179	-186.17921	1149.917614	583.413744	-218.633797	1113.48006	786.154688	-498.862549	1212.373393	703.160495	-487.842015	1175.003008	573.86902	-482.712742	1198.306553	362.467666	-301.358178	1130.762688	318.614663	-244.878407	1089.658534	474.022608	-423.417064	1019.486998	555.055581	-472.283406	919.221044	572.252629	-406.373283	943.677861	94.136428	-344.119656	1158.106814	68.95172599999999	-351.165586	1132.214845	47.185601	-244.770314	864.91751	729.637298	-398.876178	737.282467	569.567961	-358.110662	717.683188	589.308573	-463.210978	1145.641591	1453.163795	-478.528782	1129.645245	1412.554536	-109.768	1208.180531	1385.358617	-270.31634	1097.053349	1478.612456	-300.497078	1093.796407	1325.244792	-69.644385	1080.589047	1239.649772	-92.61292	994.599767	1254.105295	-73.243706	943.015899	1152.948572	-64.10307899999999	1101.281667	1393.146316	-536.894413	1026.135664	1359.556498	-516.561878	1062.793019	1296.990675	-564.777159	962.638143	1234.94587	-606.972127	928.567906	1236.285332	-543.03948	1020.044851	1095.643719	-58.135239	1123.979796	954.298484	-87.979403	1064.839841	917.835909	-99.690961	1021.14242	1171.751497	-602.995211	1116.505123	1013.703535	-524.802855	1064.556532	989.267047	-564.156672	928.020402	1157.575635	-130.0218	1114.429785	200.822528	-315.846574	
91	0.941667	1151.682309	954.49091	-433.808526	1126.35613	965.837362	-198.531132	979.881047	1003.20617	-388.101059	967.867125	1004.586204	-290.25166	1068.998791	808.612315	-159.343578	1172.278231	677.579345	-187.404507	1132.325538	579.18702	-219.418775	1119.051023	787.3004979999999	-498.926639	1226.522602	712.432765	-487.068982	1199.302775	581.019464	-485.436631	1172.473381	355.907591	-301.416015	1103.523267	314.407524	-245.973719	1119.969253	476.904027	-424.685603	1045.538621	553.710247	-473.492425	944.289723	565.8642589999999	-407.383195	906.855757	95.78868300000001	-344.637527	1120.637134	69.13750899999999	-352.748855	1094.610856	47.033211	-245.178695	877.794182	721.014663	-398.139228	762.925563	550.789264	-361.473243	744.214175	569.823363	-466.991865	1140.862493	1450.633801	-479.288715	1134.185962	1410.875614	-109.648057	1208.382465	1383.096064	-272.490807	1096.364311	1476.505415	-299.803577	1102.455643	1321.511188	-70.032557	1091.74839	1235.048947	-93.416658	1006.22506	1247.666648	-68.45164	958.804854	1143.168341	-58.808302	1094.201273	1391.913368	-536.376982	1019.483138	1357.004219	-512.6774809999999	1053.021429	1297.353055	-564.003519	949.85966	1237.233663	-604.108057	918.093287	1237.291039	-539.472435	1039.247774	1091.583224	-57.3597	1149.807179	957.798417	-92.342704	1093.129098	917.093586	-102.047124	1007.635749	1173.204647	-602.963171	1096.247534	1006.584026	-534.19068	1041.971676	986.869795	-573.208317	939.214593	1147.985932	-123.871476	1081.296907	197.757323	-317.390237	
92	0.95	1149.195401	953.249492	-433.702545	1123.794393	965.027028	-197.446283	977.93422	1003.574745	-388.288929	965.947806	1005.146714	-290.478921	1061.591088	807.7345	-159.898959	1158.925673	672.557742	-187.679617	1114.473523	575.600622	-218.889892	1124.726536	790.823974	-499.16624	1239.887225	724.9222600000001	-485.705655	1222.548757	592.666235	-487.813095	1145.258339	350.213079	-300.640777	1075.475788	311.383712	-245.621241	1150.234382	481.78774	-425.031723	1069.758368	553.045267	-473.631029	968.044264	558.211905	-407.887005	870.453574	97.788954	-344.103143	1083.622286	69.901799	-353.642874	1057.637806	46.74388	-245.070107	887.482165	708.964735	-396.800246	789.124148	527.791078	-364.67146	771.060974	546.424041	-470.632496	1136.187109	1449.95142	-479.889773	1138.925937	1411.617728	-110.128982	1208.413291	1382.474267	-274.82171	1095.736452	1476.041065	-299.237772	1109.597007	1321.69458	-70.620194	1102.312378	1234.115986	-94.13300700000001	1017.033478	1244.514564	-65.44443800000001	974.24995	1137.424365	-54.900414	1086.906716	1393.18458	-535.672653	1013.314273	1357.143189	-507.926756	1042.762017	1300.629476	-563.348578	936.990418	1242.878348	-601.095111	907.687349	1241.284073	-535.469261	1057.775656	1091.440449	-57.105649	1175.263391	966.151174	-97.01574599999999	1121.686328	921.169261	-104.459333	993.9885389999999	1177.991111	-602.677858	1076.740489	1004.873078	-542.509732	1021.100217	988.642303	-580.887839	951.332001	1141.87087	-119.345194	1047.935124	195.651915	-317.388199	
